<svg xmlns="http://www.w3.org/2000/svg" version="1.1" xmlns:xlink="http://www.w3.org/1999/xlink" xmlns:svgjs="http://svgjs.dev/svgjs" viewBox="0 0 640 800" opacity="0.68"><g stroke-width="3.5" stroke="hsl(330, 81%, 60%)" fill="none" stroke-linecap="butt"><line x1="54" y1="0" x2="0" y2="54" opacity="1.00"></line><line x1="54" y1="0" x2="108" y2="54" opacity="0.92"></line><line x1="162" y1="0" x2="108" y2="54" opacity="0.84"></line><line x1="162" y1="0" x2="216" y2="54" opacity="0.76"></line><line x1="270" y1="0" x2="216" y2="54" opacity="0.68"></line><line x1="270" y1="0" x2="324" y2="54" opacity="0.60"></line><line x1="324" y1="0" x2="378" y2="54" opacity="0.52"></line><line x1="432" y1="0" x2="378" y2="54" opacity="0.44"></line><line x1="432" y1="0" x2="486" y2="54" opacity="0.36"></line><line x1="486" y1="0" x2="540" y2="54" opacity="0.28"></line><line x1="594" y1="0" x2="540" y2="54" opacity="0.20"></line><line x1="594" y1="0" x2="648" y2="54" opacity="0.12"></line><line x1="54" y1="54" x2="0" y2="108" opacity="1.00"></line><line x1="108" y1="54" x2="54" y2="108" opacity="0.92"></line><line x1="162" y1="54" x2="108" y2="108" opacity="0.84"></line><line x1="162" y1="54" x2="216" y2="108" opacity="0.76"></line><line x1="216" y1="54" x2="270" y2="108" opacity="0.68"></line><line x1="270" y1="54" x2="324" y2="108" opacity="0.60"></line><line x1="324" y1="54" x2="378" y2="108" opacity="0.52"></line><line x1="378" y1="54" x2="432" y2="108" opacity="0.44"></line><line x1="432" y1="54" x2="486" y2="108" opacity="0.36"></line><line x1="540" y1="54" x2="486" y2="108" opacity="0.28"></line><line x1="540" y1="54" x2="594" y2="108" opacity="0.20"></line><line x1="648" y1="54" x2="594" y2="108" opacity="0.12"></line><line x1="0" y1="108" x2="54" y2="162" opacity="1.00"></line><line x1="108" y1="108" x2="54" y2="162" opacity="0.92"></line><line x1="162" y1="108" x2="108" y2="162" opacity="0.84"></line><line x1="162" y1="108" x2="216" y2="162" opacity="0.76"></line><line x1="270" y1="108" x2="216" y2="162" opacity="0.68"></line><line x1="324" y1="108" x2="270" y2="162" opacity="0.60"></line><line x1="378" y1="108" x2="324" y2="162" opacity="0.52"></line><line x1="432" y1="108" x2="378" y2="162" opacity="0.44"></line><line x1="486" y1="108" x2="432" y2="162" opacity="0.36"></line><line x1="486" y1="108" x2="540" y2="162" opacity="0.28"></line><line x1="594" y1="108" x2="540" y2="162" opacity="0.20"></line><line x1="594" y1="108" x2="648" y2="162" opacity="0.12"></line><line x1="0" y1="162" x2="54" y2="216" opacity="1.00"></line><line x1="54" y1="162" x2="108" y2="216" opacity="0.92"></line><line x1="108" y1="162" x2="162" y2="216" opacity="0.84"></line><line x1="162" y1="162" x2="216" y2="216" opacity="0.76"></line><line x1="216" y1="162" x2="270" y2="216" opacity="0.68"></line><line x1="270" y1="162" x2="324" y2="216" opacity="0.60"></line><line x1="324" y1="162" x2="378" y2="216" opacity="0.52"></line><line x1="432" y1="162" x2="378" y2="216" opacity="0.44"></line><line x1="486" y1="162" x2="432" y2="216" opacity="0.36"></line><line x1="540" y1="162" x2="486" y2="216" opacity="0.28"></line><line x1="594" y1="162" x2="540" y2="216" opacity="0.20"></line><line x1="594" y1="162" x2="648" y2="216" opacity="0.12"></line><line x1="0" y1="216" x2="54" y2="270" opacity="1.00"></line><line x1="108" y1="216" x2="54" y2="270" opacity="0.92"></line><line x1="162" y1="216" x2="108" y2="270" opacity="0.84"></line><line x1="162" y1="216" x2="216" y2="270" opacity="0.76"></line><line x1="216" y1="216" x2="270" y2="270" opacity="0.68"></line><line x1="270" y1="216" x2="324" y2="270" opacity="0.60"></line><line x1="324" y1="216" x2="378" y2="270" opacity="0.52"></line><line x1="378" y1="216" x2="432" y2="270" opacity="0.44"></line><line x1="432" y1="216" x2="486" y2="270" opacity="0.36"></line><line x1="540" y1="216" x2="486" y2="270" opacity="0.28"></line><line x1="540" y1="216" x2="594" y2="270" opacity="0.20"></line><line x1="648" y1="216" x2="594" y2="270" opacity="0.12"></line><line x1="54" y1="270" x2="0" y2="324" opacity="1.00"></line><line x1="54" y1="270" x2="108" y2="324" opacity="0.92"></line><line x1="162" y1="270" x2="108" y2="324" opacity="0.84"></line><line x1="216" y1="270" x2="162" y2="324" opacity="0.76"></line><line x1="270" y1="270" x2="216" y2="324" opacity="0.68"></line><line x1="324" y1="270" x2="270" y2="324" opacity="0.60"></line><line x1="324" y1="270" x2="378" y2="324" opacity="0.52"></line><line x1="432" y1="270" x2="378" y2="324" opacity="0.44"></line><line x1="486" y1="270" x2="432" y2="324" opacity="0.36"></line><line x1="540" y1="270" x2="486" y2="324" opacity="0.28"></line><line x1="594" y1="270" x2="540" y2="324" opacity="0.20"></line><line x1="648" y1="270" x2="594" y2="324" opacity="0.12"></line><line x1="54" y1="324" x2="0" y2="378" opacity="1.00"></line><line x1="108" y1="324" x2="54" y2="378" opacity="0.92"></line><line x1="108" y1="324" x2="162" y2="378" opacity="0.84"></line><line x1="162" y1="324" x2="216" y2="378" opacity="0.76"></line><line x1="270" y1="324" x2="216" y2="378" opacity="0.68"></line><line x1="324" y1="324" x2="270" y2="378" opacity="0.60"></line><line x1="324" y1="324" x2="378" y2="378" opacity="0.52"></line><line x1="432" y1="324" x2="378" y2="378" opacity="0.44"></line><line x1="432" y1="324" x2="486" y2="378" opacity="0.36"></line><line x1="540" y1="324" x2="486" y2="378" opacity="0.28"></line><line x1="540" y1="324" x2="594" y2="378" opacity="0.20"></line><line x1="648" y1="324" x2="594" y2="378" opacity="0.12"></line><line x1="0" y1="378" x2="54" y2="432" opacity="1.00"></line><line x1="108" y1="378" x2="54" y2="432" opacity="0.92"></line><line x1="108" y1="378" x2="162" y2="432" opacity="0.84"></line><line x1="216" y1="378" x2="162" y2="432" opacity="0.76"></line><line x1="270" y1="378" x2="216" y2="432" opacity="0.68"></line><line x1="270" y1="378" x2="324" y2="432" opacity="0.60"></line><line x1="378" y1="378" x2="324" y2="432" opacity="0.52"></line><line x1="378" y1="378" x2="432" y2="432" opacity="0.44"></line><line x1="486" y1="378" x2="432" y2="432" opacity="0.36"></line><line x1="486" y1="378" x2="540" y2="432" opacity="0.28"></line><line x1="540" y1="378" x2="594" y2="432" opacity="0.20"></line><line x1="648" y1="378" x2="594" y2="432" opacity="0.12"></line><line x1="54" y1="432" x2="0" y2="486" opacity="1.00"></line><line x1="108" y1="432" x2="54" y2="486" opacity="0.92"></line><line x1="162" y1="432" x2="108" y2="486" opacity="0.84"></line><line x1="162" y1="432" x2="216" y2="486" opacity="0.76"></line><line x1="270" y1="432" x2="216" y2="486" opacity="0.68"></line><line x1="270" y1="432" x2="324" y2="486" opacity="0.60"></line><line x1="378" y1="432" x2="324" y2="486" opacity="0.52"></line><line x1="432" y1="432" x2="378" y2="486" opacity="0.44"></line><line x1="486" y1="432" x2="432" y2="486" opacity="0.36"></line><line x1="486" y1="432" x2="540" y2="486" opacity="0.28"></line><line x1="594" y1="432" x2="540" y2="486" opacity="0.20"></line><line x1="594" y1="432" x2="648" y2="486" opacity="0.12"></line><line x1="0" y1="486" x2="54" y2="540" opacity="1.00"></line><line x1="54" y1="486" x2="108" y2="540" opacity="0.92"></line><line x1="162" y1="486" x2="108" y2="540" opacity="0.84"></line><line x1="216" y1="486" x2="162" y2="540" opacity="0.76"></line><line x1="216" y1="486" x2="270" y2="540" opacity="0.68"></line><line x1="324" y1="486" x2="270" y2="540" opacity="0.60"></line><line x1="378" y1="486" x2="324" y2="540" opacity="0.52"></line><line x1="432" y1="486" x2="378" y2="540" opacity="0.44"></line><line x1="432" y1="486" x2="486" y2="540" opacity="0.36"></line><line x1="540" y1="486" x2="486" y2="540" opacity="0.28"></line><line x1="594" y1="486" x2="540" y2="540" opacity="0.20"></line><line x1="648" y1="486" x2="594" y2="540" opacity="0.12"></line><line x1="0" y1="540" x2="54" y2="594" opacity="1.00"></line><line x1="108" y1="540" x2="54" y2="594" opacity="0.92"></line><line x1="108" y1="540" x2="162" y2="594" opacity="0.84"></line><line x1="162" y1="540" x2="216" y2="594" opacity="0.76"></line><line x1="216" y1="540" x2="270" y2="594" opacity="0.68"></line><line x1="324" y1="540" x2="270" y2="594" opacity="0.60"></line><line x1="324" y1="540" x2="378" y2="594" opacity="0.52"></line><line x1="378" y1="540" x2="432" y2="594" opacity="0.44"></line><line x1="486" y1="540" x2="432" y2="594" opacity="0.36"></line><line x1="486" y1="540" x2="540" y2="594" opacity="0.28"></line><line x1="594" y1="540" x2="540" y2="594" opacity="0.20"></line><line x1="648" y1="540" x2="594" y2="594" opacity="0.12"></line><line x1="54" y1="594" x2="0" y2="648" opacity="1.00"></line><line x1="108" y1="594" x2="54" y2="648" opacity="0.92"></line><line x1="108" y1="594" x2="162" y2="648" opacity="0.84"></line><line x1="162" y1="594" x2="216" y2="648" opacity="0.76"></line><line x1="270" y1="594" x2="216" y2="648" opacity="0.68"></line><line x1="324" y1="594" x2="270" y2="648" opacity="0.60"></line><line x1="378" y1="594" x2="324" y2="648" opacity="0.52"></line><line x1="378" y1="594" x2="432" y2="648" opacity="0.44"></line><line x1="432" y1="594" x2="486" y2="648" opacity="0.36"></line><line x1="540" y1="594" x2="486" y2="648" opacity="0.28"></line><line x1="594" y1="594" x2="540" y2="648" opacity="0.20"></line><line x1="594" y1="594" x2="648" y2="648" opacity="0.12"></line><line x1="54" y1="648" x2="0" y2="702" opacity="1.00"></line><line x1="108" y1="648" x2="54" y2="702" opacity="0.92"></line><line x1="108" y1="648" x2="162" y2="702" opacity="0.84"></line><line x1="162" y1="648" x2="216" y2="702" opacity="0.76"></line><line x1="216" y1="648" x2="270" y2="702" opacity="0.68"></line><line x1="270" y1="648" x2="324" y2="702" opacity="0.60"></line><line x1="324" y1="648" x2="378" y2="702" opacity="0.52"></line><line x1="432" y1="648" x2="378" y2="702" opacity="0.44"></line><line x1="432" y1="648" x2="486" y2="702" opacity="0.36"></line><line x1="486" y1="648" x2="540" y2="702" opacity="0.28"></line><line x1="540" y1="648" x2="594" y2="702" opacity="0.20"></line><line x1="648" y1="648" x2="594" y2="702" opacity="0.12"></line><line x1="54" y1="702" x2="0" y2="756" opacity="1.00"></line><line x1="54" y1="702" x2="108" y2="756" opacity="0.92"></line><line x1="162" y1="702" x2="108" y2="756" opacity="0.84"></line><line x1="162" y1="702" x2="216" y2="756" opacity="0.76"></line><line x1="270" y1="702" x2="216" y2="756" opacity="0.68"></line><line x1="324" y1="702" x2="270" y2="756" opacity="0.60"></line><line x1="324" y1="702" x2="378" y2="756" opacity="0.52"></line><line x1="432" y1="702" x2="378" y2="756" opacity="0.44"></line><line x1="486" y1="702" x2="432" y2="756" opacity="0.36"></line><line x1="486" y1="702" x2="540" y2="756" opacity="0.28"></line><line x1="540" y1="702" x2="594" y2="756" opacity="0.20"></line><line x1="594" y1="702" x2="648" y2="756" opacity="0.12"></line><line x1="0" y1="756" x2="54" y2="810" opacity="1.00"></line><line x1="108" y1="756" x2="54" y2="810" opacity="0.92"></line><line x1="162" y1="756" x2="108" y2="810" opacity="0.84"></line><line x1="162" y1="756" x2="216" y2="810" opacity="0.76"></line><line x1="270" y1="756" x2="216" y2="810" opacity="0.68"></line><line x1="270" y1="756" x2="324" y2="810" opacity="0.60"></line><line x1="324" y1="756" x2="378" y2="810" opacity="0.52"></line><line x1="378" y1="756" x2="432" y2="810" opacity="0.44"></line><line x1="432" y1="756" x2="486" y2="810" opacity="0.36"></line><line x1="486" y1="756" x2="540" y2="810" opacity="0.28"></line><line x1="594" y1="756" x2="540" y2="810" opacity="0.20"></line><line x1="648" y1="756" x2="594" y2="810" opacity="0.12"></line></g></svg>